<svg width="679" height="596" viewBox="0 0 679 596" fill="none" xmlns="http://www.w3.org/2000/svg">
<style>
    @keyframes pulse-small {
        0% {
          -webkit-transform: scale(1);
          transform: scale(1);
        }
        70% {
          -webkit-transform: scale(1.1);
          transform: scale(1.1);
        }
        100% {
          -webkit-transform: scale(1);
          transform: scale(1);
        }
    }

    @-webkit-keyframes rotating {
      0% {
        -webkit-transform: rotate(0deg);
        -o-transform: rotate(0deg);
        transform: rotate(0deg);
      }
      50% {
        -webkit-transform: rotate(180deg);
        -o-transform: rotate(180deg);
        transform: rotate(180deg);
      }
      100% {
        -webkit-transform: rotate(360deg);
        -o-transform: rotate(360deg);
        transform: rotate(360deg);
      }
    }
    @keyframes rotating {
      0% {
        -ms-transform: rotate(0deg);
        -moz-transform: rotate(0deg);
        -webkit-transform: rotate(0deg);
        -o-transform: rotate(0deg);
        transform: rotate(0deg);
      }
      50% {
        -ms-transform: rotate(180deg);
        -moz-transform: rotate(180deg);
        -webkit-transform: rotate(180deg);
        -o-transform: rotate(180deg);
        transform: rotate(180deg);
      }
      100% {
        -ms-transform: rotate(360deg);
        -moz-transform: rotate(360deg);
        -webkit-transform: rotate(360deg);
        -o-transform: rotate(360deg);
        transform: rotate(360deg);
      }
    }

    @keyframes pulse {
        0% {
          -webkit-transform: scale(1);
          transform: scale(1);
        }
        70% {
          -webkit-transform: scale(1.6);
          transform: scale(1.6);
        }
        100% {
          -webkit-transform: scale(1);
          transform: scale(1);
        }
    } 

    @-webkit-keyframes box-1 {
        from { -webkit-transform: translate(0,  0px); transform: translate(0,  0px); }
        65%  { -webkit-transform: translate(-7px, 6px); transform: translate(-7px, 6px); }
        to   { -webkit-transform: translate(0, 0px); transform: translate(0, 0px); }    
    }

    @-webkit-keyframes box-2 {
        from { -webkit-transform: translate(0,  0px); transform: translate(0,  0px); }
        65%  { -webkit-transform: translate(7px, -6px); transform: translate(7px, -6px); }
        to   { -webkit-transform: translate(0, 0px); transform: translate(0, 0px); }    
    }

    @-webkit-keyframes floating-up-down {
        from { -webkit-transform: translate(0,  0px); transform: translate(0,  0px); }
        65%  { -webkit-transform: translate(0, -5px); transform: translate(0, -5px); }
        to   { -webkit-transform: translate(0, 0px); transform: translate(0, 0px); }    
    }

    @-webkit-keyframes floating-up-down-20 {
        from { -webkit-transform: translate(0,  0px); transform: translate(0,  0px); }
        65%  { -webkit-transform: translate(0, -20px); transform: translate(0, -20px); }
        to   { -webkit-transform: translate(0, 0px); transform: translate(0, 0px); }    
    }

    #ball-1, #ball-2, #ball-3, #ball-4, #ball-5, #ball-6 {
      animation: pulse 2s ease-in-out infinite;
      -webkit-animation: pulse 2s ease-in-out infinite;
      -webkit-transform-origin: center; -ms-transform-origin: center; transform-origin: center; transform-box: fill-box;
    }

    #ball-1 { animation-delay: 1s; }
    #ball-2 { animation-delay: 1.3s; }
    #ball-3 { animation-delay: 1.8s; } 
    #ball-6 { animation-delay: 2s; }
    #ball-7 { animation-delay: 2.3s; }

    #bar-4, #bar-5, #bar-6, #bar-7 {
      animation: floating-up-down 2s ease-in-out infinite;
      -webkit-animation: floating-up-down 2s ease-in-out infinite;
      -webkit-transform-origin: center; -ms-transform-origin: center; transform-origin: center; transform-box: fill-box;
    }

    #bar-5 { animation-delay: 1s; }
    #bar-6 { animation-delay: 1.3s; }
    #bar-7 { animation-delay: 1.8s; }  

    #male-man, #female-man {
      animation-duration: 3s; 
      animation-name: floating-up-down-20; 
      animation-iteration-count: infinite; 
      animation-timing-function: ease-in-out;
    }

    #female-man { animation-delay: 1s; }

    #message-box {
      animation: pulse-small 2s ease-in-out infinite;
      -webkit-animation: pulse-small 2s ease-in-out infinite;
      -webkit-transform-origin: center; -ms-transform-origin: center; transform-origin: center; transform-box: fill-box;
    }

    #box-1 {
      animation: box-1 2s ease-in-out infinite;
      -webkit-animation: box-1 2s ease-in-out infinite;
      -webkit-transform-origin: center; -ms-transform-origin: center; transform-origin: center; transform-box: fill-box;
    }

    #box-2 {
      animation: box-2 2s ease-in-out infinite;
      -webkit-animation: box-2 2s ease-in-out infinite;
      -webkit-transform-origin: center; -ms-transform-origin: center; transform-origin: center; transform-box: fill-box;
    }

    #setting-1 {
      animation: rotating 2s ease-in-out infinite;
      -webkit-animation: rotating 2s ease-in-out infinite;
      -webkit-transform-origin: center; -ms-transform-origin: center; transform-origin: center; transform-box: fill-box;
    }
  </style>
<g id="banner">
<path id="Vector" d="M46.7021 545.627C33.3963 507.38 17.4533 461.987 46.1183 426.579C67.778 399.786 107.494 381.327 142.017 389.52C171.769 396.585 204.883 426.478 235.782 405.966C261.307 389.057 261.951 353.85 263.722 326.634C265.01 307.048 267.527 285.448 281.436 270.27C296.171 254.267 320.468 250.382 341.041 248.007C383.81 243.235 427.085 249.702 466.591 266.768C484.184 274.357 503.871 283.516 516.191 298.734C527.705 313.006 530.865 331.344 529.175 349.22C527.907 360.767 525.146 372.101 520.962 382.937C516.936 393.566 511.219 403.651 507.958 414.541C504.495 426.116 504.817 439.261 514.943 447.333C525.068 455.405 539.743 456.109 552.062 456.149C573.098 456.149 594.939 454.68 613.076 467.402C633.548 481.735 643.834 510.5 629.683 532.764C618.229 550.74 596.247 559.154 577.164 566.199C575.513 566.803 576.218 569.481 577.909 568.857C607.137 558.087 644.338 540.172 638.52 502.629C637.068 494.151 633.731 486.107 628.756 479.091C623.781 472.074 617.294 466.264 609.774 462.088C594.194 453.311 576.137 453.17 558.765 453.392C543.889 453.573 521.626 454.559 512.225 440.408C506.045 431.108 509.065 418.99 512.849 409.388C517.278 398.115 522.793 387.426 526.437 375.811C536.743 343.08 534.891 306.685 505.462 284.824C471.885 259.883 426.371 247.081 385.145 244.303C364.024 242.85 342.804 244.204 322.038 248.329C304.545 251.831 286.992 257.931 275.941 272.787C253.375 303.142 266.138 344.811 253.053 378.488C244.74 399.907 226.562 413.434 202.93 409.307C183.424 405.905 166.696 394.109 147.975 388.292C111.903 377.1 69.6099 394.975 45.8164 422.734C14.4541 459.29 30.0345 505.971 44.1254 546.351C44.7092 548.022 47.3865 547.318 46.8027 545.627H46.7021Z" fill="#DCEAEF"/>
<path id="Vector_2" d="M678.698 557.143C678.698 559.74 676.424 562.256 672.096 564.712C671.009 565.336 669.781 565.96 668.432 566.564C660.237 569.949 651.737 572.545 643.048 574.314L640.693 574.837C615.044 580.006 589.132 583.77 563.072 586.11L561.059 586.311C533.803 588.989 502.683 591.163 468.965 592.733H467.093C439.616 594.001 410.347 594.867 379.85 595.289H378.019C365.31 595.45 352.42 595.531 339.349 595.531C325.097 595.531 311.08 595.437 297.298 595.249H295.466C264.949 594.826 235.7 593.92 208.284 592.612L206.412 592.511C172.593 590.901 141.593 588.667 114.478 585.929L112.465 585.728C80.8214 582.507 54.5519 578.602 35.3682 574.233C34.6032 574.072 33.8181 573.891 33.0733 573.69C25.2677 572.013 17.6331 569.621 10.2662 566.544C9.01304 565.992 7.79009 565.374 6.60253 564.692C2.25448 562.236 0 559.72 0 557.123C0 549.896 17.533 543.153 48.0901 537.376C51.4116 536.752 54.874 536.128 58.5175 535.524C67.5759 534.014 77.5401 532.585 88.3498 531.236L91.9532 530.793C110.573 528.559 131.549 526.566 154.356 524.875L156.711 524.694C177.646 523.184 200.151 521.916 223.904 520.93H225.797C247.939 520.044 271.371 519.4 295.486 519.058H297.318C311.114 518.856 325.131 518.762 339.369 518.776C352.454 518.776 365.343 518.856 378.039 519.017H379.87C404.026 519.339 427.256 519.943 449.52 520.809H451.432C475.085 521.755 497.55 522.963 518.485 524.432L520.82 524.613C543.466 526.244 564.28 528.176 582.84 530.33C584.068 530.451 585.276 530.612 586.443 530.753C598.803 532.222 610.116 533.833 620.281 535.524C623.932 536.128 627.414 536.745 630.729 537.376C661.165 543.173 678.698 549.876 678.698 557.143Z" fill="#F3FCFF"/>
<path id="Vector_3" d="M672.177 564.712H630.548L594.959 537.396H630.629C627.3 536.778 623.818 536.161 620.181 535.544H592.563L586.343 530.773C585.175 530.632 583.968 530.471 582.74 530.35L589.523 535.544H528.248L520.72 524.633L518.384 524.452L526.014 535.544H454.915L451.312 520.829H449.4L453.023 535.624H379.75V519.037H377.918V535.644H297.198V519.077H295.366V535.604H222.093L225.676 520.949H223.784L220.221 535.544H149.122L156.57 524.714L154.215 524.895L146.888 535.544H85.5924L91.7522 530.813L88.149 531.256L82.5529 535.544H58.3971C54.7536 536.148 51.2911 536.772 47.9697 537.396H80.1775L44.6081 564.712H6.36133C7.54889 565.394 8.77184 566.012 10.025 566.564H42.2328L32.9126 573.71C33.6574 573.911 34.4425 574.092 35.2075 574.253L45.2724 566.564H125.55L112.345 585.747L114.358 585.949L127.704 566.564H212.632L206.291 592.531L208.163 592.632L214.504 566.564H295.346V595.269H297.178V566.564H377.898V595.349H379.73V566.564H460.572L466.973 592.733H468.845L462.464 566.564H547.372L560.939 586.271L562.952 586.07L549.485 566.564H629.904L640.673 574.837L643.029 574.314L632.964 566.564H668.453C669.781 565.98 671.009 565.336 672.177 564.712ZM47.688 564.712L83.1769 537.396H145.58L126.758 564.712H47.688ZM129.093 564.712L147.915 537.396H219.838L213.176 564.712H129.093ZM215.068 564.712L221.731 537.396H295.446V564.712H215.068ZM297.278 564.712V537.396H377.999V564.712H297.278ZM379.811 564.712V537.396H453.526L460.209 564.712H379.811ZM462.101 564.712L455.418 537.396H527.242L546.063 564.712H462.101ZM548.398 564.712L529.577 537.396H591.979L627.549 564.712H548.398Z" fill="white"/>
<path id="Vector_4" d="M283.811 555.19C376.908 555.19 452.378 549.746 452.378 543.031C452.378 536.317 376.908 530.873 283.811 530.873C190.714 530.873 115.244 536.317 115.244 543.031C115.244 549.746 190.714 555.19 283.811 555.19Z" fill="#D4E8EE"/>
<path id="Vector_5" d="M300.86 569.603C300.86 576.487 263.761 582.063 218.005 582.063C172.25 582.063 135.151 576.487 135.151 569.603C135.151 562.719 172.25 557.143 218.005 557.143C263.761 557.143 300.86 562.719 300.86 569.603Z" fill="#D4E8EE"/>
<path id="Vector_6" d="M599.99 17.54H347.018V340.866H599.99V17.54Z" fill="#F4F4F4"/>
<path id="Vector_7" d="M568.548 192.629H429.088C424.808 192.629 421.338 196.099 421.338 200.379V304.35C421.338 308.63 424.808 312.1 429.088 312.1H568.548C572.828 312.1 576.298 308.63 576.298 304.35V200.379C576.298 196.099 572.828 192.629 568.548 192.629Z" fill="white"/>
<path id="Vector_8" d="M606.068 3.75098H344.199C341.964 3.75098 340.153 5.5625 340.153 7.7971V13.4938C340.153 15.7284 341.964 17.5399 344.199 17.5399H606.068C608.303 17.5399 610.114 15.7284 610.114 13.4938V7.7971C610.114 5.5625 608.303 3.75098 606.068 3.75098Z" fill="#016146"/>
<path id="Vector_9" d="M606.068 340.868H344.199C341.964 340.868 340.153 342.68 340.153 344.914V350.611C340.153 352.846 341.964 354.657 344.199 354.657H606.068C608.303 354.657 610.114 352.846 610.114 350.611V344.914C610.114 342.68 608.303 340.868 606.068 340.868Z" fill="#016146"/>
<g id="bar-1">
<path id="Vector_10" d="M567.743 53.8936H488.693C487.325 53.8936 486.217 55.0021 486.217 56.3695V58.1007C486.217 59.4681 487.325 60.5767 488.693 60.5767H567.743C569.11 60.5767 570.219 59.4681 570.219 58.1007V56.3695C570.219 55.0021 569.11 53.8936 567.743 53.8936Z" fill="#C3D4DB"/>
</g>
<g id="bar-2">
<path id="Vector_11" d="M567.743 73.0371H488.693C487.325 73.0371 486.217 74.1457 486.217 75.5131V77.2443C486.217 78.6117 487.325 79.7202 488.693 79.7202H567.743C569.11 79.7202 570.219 78.6117 570.219 77.2443V75.5131C570.219 74.1457 569.11 73.0371 567.743 73.0371Z" fill="#C3D4DB"/>
</g>
<g id="bar-3">
<path id="Vector_12" d="M567.743 92.1816H488.693C487.325 92.1816 486.217 93.2902 486.217 94.6576V96.3888C486.217 97.7562 487.325 98.8647 488.693 98.8647H567.743C569.11 98.8647 570.219 97.7562 570.219 96.3888V94.6576C570.219 93.2902 569.11 92.1816 567.743 92.1816Z" fill="#C3D4DB"/>
</g>
<path id="Vector_13" d="M515.926 165.615C515.561 165.621 515.205 165.503 514.916 165.28C514.627 165.057 514.422 164.742 514.336 164.388L508.619 143.634L504.15 152.149C504.01 152.417 503.798 152.641 503.539 152.797C503.28 152.954 502.983 153.036 502.68 153.034H481.906C481.785 153.034 481.664 153.01 481.552 152.964C481.44 152.917 481.338 152.849 481.252 152.763C481.166 152.677 481.097 152.575 481.051 152.463C481.004 152.35 480.98 152.23 480.98 152.108C480.986 151.864 481.085 151.632 481.257 151.459C481.43 151.287 481.662 151.187 481.906 151.182H502.56L507.189 142.365C507.35 142.07 507.594 141.828 507.891 141.671C508.189 141.513 508.526 141.447 508.86 141.48C509.187 141.522 509.495 141.658 509.745 141.873C509.996 142.088 510.178 142.371 510.269 142.688L515.906 163.18L522.75 129.865C522.833 129.494 523.039 129.163 523.336 128.925C523.632 128.688 524.001 128.559 524.38 128.559C524.76 128.559 525.129 128.688 525.425 128.925C525.721 129.163 525.928 129.494 526.011 129.865L532.754 158.429L545.356 135.864C545.508 135.599 545.73 135.381 545.997 135.234C546.264 135.087 546.567 135.015 546.872 135.028C547.177 135.04 547.472 135.136 547.727 135.305C547.981 135.473 548.185 135.708 548.315 135.984L555.541 151.625H574.081C574.327 151.625 574.562 151.723 574.736 151.896C574.909 152.07 575.007 152.306 575.007 152.551C575.007 152.797 574.909 153.032 574.736 153.206C574.562 153.38 574.327 153.477 574.081 153.477H555.421C555.104 153.474 554.794 153.381 554.527 153.211C554.26 153.04 554.047 152.797 553.911 152.511L546.805 137.071L534.083 159.697C533.921 159.993 533.671 160.231 533.369 160.378C533.066 160.526 532.725 160.577 532.392 160.523C532.061 160.479 531.751 160.334 531.505 160.107C531.26 159.88 531.092 159.582 531.023 159.254L524.34 131.073L517.496 164.307C517.427 164.675 517.233 165.008 516.947 165.25C516.661 165.492 516.3 165.628 515.926 165.636V165.615Z" fill="#99AFB5"/>
<g id="bar-4">
<path id="Vector_14" d="M480.217 260.749H466.307C465.395 260.749 464.656 261.488 464.656 262.4V285.851C464.656 286.763 465.395 287.502 466.307 287.502H480.217C481.128 287.502 481.867 286.763 481.867 285.851V262.4C481.867 261.488 481.128 260.749 480.217 260.749Z" fill="#F9C84E"/>
</g>
<g id="bar-5">
<path id="Vector_15" d="M505.742 245.067H491.832C490.921 245.067 490.182 245.806 490.182 246.718V285.85C490.182 286.762 490.921 287.501 491.832 287.501H505.742C506.654 287.501 507.393 286.762 507.393 285.85V246.718C507.393 245.806 506.654 245.067 505.742 245.067Z" fill="#00A76E"/>
</g>
<g id="bar-6">
<path id="Vector_16" d="M530.967 230.353H517.057C516.145 230.353 515.406 231.092 515.406 232.003V285.871C515.406 286.782 516.145 287.521 517.057 287.521H530.967C531.878 287.521 532.617 286.782 532.617 285.871V232.003C532.617 231.092 531.878 230.353 530.967 230.353Z" fill="#F9C84E"/>
</g>
<g id="bar-7">
<path id="Vector_17" d="M557.094 210.021H543.184C542.272 210.021 541.533 210.761 541.533 211.672V285.851C541.533 286.762 542.272 287.501 543.184 287.501H557.094C558.005 287.501 558.744 286.762 558.744 285.851V211.672C558.744 210.761 558.005 210.021 557.094 210.021Z" fill="#00A76E"/>
</g>
<path id="Vector_18" d="M576.298 305.037H421.338V312.103H576.298V305.037Z" fill="#99AFB5"/>
<path id="Vector_19" d="M470.535 182.665C470.535 182.665 429.651 254.951 421.337 258.917C413.023 262.882 391.243 260.749 391.243 260.749L396.94 340.886H347.018V198.185C374.806 206.039 401.678 216.836 427.175 230.393L460.369 180.833L470.535 182.665Z" fill="#C3D4DB"/>
<path id="Vector_20" d="M599.99 17.54H347.018V26.9206H599.99V17.54Z" fill="#C3D4DB"/>
<path id="Vector_21" d="M599.99 331.165H347.018V340.868H599.99V331.165Z" fill="#C3D4DB"/>
<path id="Vector_22" d="M374.436 121.47C374.436 121.47 381.26 147.055 377.898 158.469C374.537 169.883 363.606 169.54 361.653 171.05C359.701 172.56 361.653 187.758 361.653 187.758L337.498 184.195C337.498 184.195 342.208 174.975 341.403 159.858C340.598 144.74 357.849 104.4 374.436 121.47Z" fill="#F9C3A5"/>
<path id="Vector_23" d="M373.066 527.23C373.066 527.23 370.751 535.987 373.066 541.523C375.381 547.058 376.528 546.817 384.238 547.562C391.948 548.306 412.42 546.515 413.99 545.146C415.56 543.777 416.184 539.288 410.991 537.497C405.797 535.705 397.021 535.725 393.015 533.269C390.657 531.859 388.8 529.748 387.7 527.23H373.066Z" fill="#2F2159"/>
<path id="Vector_24" d="M314.467 523.707C314.467 523.707 311.045 532.101 312.615 537.798C314.185 543.495 315.353 543.495 322.922 545.186C330.491 546.877 350.963 547.823 352.734 546.655C354.506 545.488 355.673 541.139 350.721 538.603C345.769 536.067 337.093 535.02 333.429 532.061C331.281 530.373 329.712 528.059 328.941 525.438L314.467 523.707Z" fill="#2F2159"/>
<path id="Vector_25" d="M395.693 528.86C395.069 529.846 392.814 530.41 389.936 530.692C383.897 531.255 374.919 530.45 372.604 529.383C372.221 529.222 372.02 529.061 372.02 528.86C372.02 527.028 364.33 440.027 363.968 437.551C363.787 436.242 359.157 412.087 354.89 390.185C351.145 371.022 347.643 353.589 347.643 354.636C347.643 355.683 347.643 372.652 347.643 392.118C347.643 418.045 347.321 448.32 346.435 450.776C344.905 455.084 333.854 529.504 332.344 528.86C331.641 528.682 330.928 528.541 330.21 528.437C324.712 527.698 319.271 526.581 313.925 525.096C311.308 524.25 309.456 523.264 309.275 522.116C308.671 518.09 319.34 443.711 319.139 440.027C318.958 437.813 317.126 420.239 315.596 400.613C314.569 387.407 313.704 373.276 313.583 362.265C313.477 346.983 315.427 331.756 319.38 316.993C320.025 314.618 320.447 313.329 320.447 313.329L355.413 312.685L388.305 312.102C388.305 312.102 388.426 314.94 388.647 319.952C388.647 320.818 388.647 321.764 388.768 322.77C389.05 329.212 389.432 338.25 389.895 348.939C390.318 358.36 390.761 369.069 391.224 380.523C393.861 443.308 397.041 526.766 395.693 528.86Z" fill="#2F2159"/>
<path id="Vector_26" d="M347.723 354.616C347.723 355.603 347.723 372.633 347.723 392.098L315.636 400.593C314.61 387.388 313.744 373.257 313.623 362.246C313.517 346.963 315.467 331.736 319.421 316.974C320.065 314.598 320.487 313.31 320.487 313.31L355.453 312.666L388.345 312.082C388.345 312.082 388.466 314.92 388.687 319.933C388.687 320.798 388.687 321.744 388.808 322.751C381.98 324.67 375.034 326.143 368.014 327.159L351.91 328.991C351.91 328.991 347.884 347.49 352.695 349.302C355.352 350.329 374.053 349.705 389.976 348.98C390.399 358.401 390.841 369.11 391.304 380.564L355.071 390.166C351.226 371.022 347.723 353.59 347.723 354.616Z" fill="#1D163D"/>
<path id="Vector_27" d="M470.535 182.665C471.441 186.027 438.327 245.993 428.564 246.456C418.801 246.919 385.829 219.563 384.903 221.395C383.977 223.227 388.043 289.353 389.452 302.719C390.861 316.086 390.358 319.326 387.439 320.836C385.064 322.125 370.228 325.084 354.044 324.721C349.732 324.66 345.428 324.317 341.161 323.695C320.789 320.615 319.863 320.393 318.494 313.227C317.568 308.557 316.864 296.821 316.481 289.252C316.28 285.227 316.18 282.328 316.18 282.328H295.587C295.587 282.328 292.587 264.573 293.735 256.743C294.882 248.912 316.783 188.301 318.635 187.556C320.487 186.812 336.088 178.88 341.08 179.162C348.4 179.509 355.693 180.288 362.921 181.497C370.148 183.027 379.025 183.208 385.829 188.885C392.633 194.562 422.727 221.314 424.861 220.569C426.994 219.825 454.391 172.258 457.773 173.526C461.155 174.794 469.609 179.263 470.535 182.665Z" fill="#1E51B4"/>
<g id="Group 1216400390">
<path id="Vector_28" d="M316.076 222.482V282.429H295.584C295.584 282.429 302.952 270.995 307.098 265.6C311.245 260.206 315.13 218.094 316.076 222.482Z" fill="#092762"/>
<path id="Vector_29" d="M357.563 295.393L353.96 324.823C349.648 324.762 345.344 324.419 341.077 323.796C320.705 320.716 319.779 320.495 318.41 313.329C317.484 308.659 316.78 296.923 316.397 289.354H352.108C352.878 289.343 353.642 289.497 354.348 289.805C355.054 290.112 355.686 290.567 356.202 291.139C356.719 291.71 357.107 292.385 357.342 293.119C357.576 293.853 357.652 294.628 357.563 295.393Z" fill="#092762"/>
<path id="Vector_30" d="M384.9 221.395L377.371 211.552L385.806 249.134L384.9 221.395Z" fill="#092762"/>
</g>
<path id="Vector_31" d="M363.825 141.076C363.825 141.076 361.068 135.037 357.384 138.761C353.7 142.485 359.92 147.296 358.31 154.322C356.7 161.347 348.97 164.83 344.219 164.709C339.468 164.588 334.879 161.709 329.343 149.028C323.807 136.346 326.223 126.663 328.296 124.57L330.309 122.557C330.309 122.557 331.819 111.948 341.501 107.681C351.184 103.413 377.594 104.682 377.735 116.115C377.876 127.549 367.026 125.556 365.396 130.206C363.765 134.856 368.918 143.25 363.825 141.076Z" fill="#233862"/>
<g id="hand">
<path id="Vector_32" d="M457.873 174.734C460.153 172.234 461.669 169.132 462.241 165.797C462.765 160.966 463.046 155.43 464.677 152.43C466.307 149.431 476.594 145.747 478.164 146.392C479.734 147.036 479.15 149.049 479.15 149.049C479.15 149.049 482.593 147.036 483.982 149.975C485.37 152.914 486.699 159.194 485.995 161.207C485.29 163.22 472.85 170.829 471.581 171.997C469.603 174.802 467.834 177.749 466.287 180.814L457.873 174.734Z" fill="#F9C3A5"/>
<path id="Vector_33" d="M479.15 149.028C479.15 149.028 472.145 153.054 472.044 151.906C471.943 150.759 479.23 148.102 479.23 148.102L479.15 149.028Z" fill="#F48E76"/>
<g id="Group" opacity="0.72">
<path id="Vector_34" d="M464.677 141.237C464.677 141.237 465.422 140.09 465.825 140.251C466.227 140.412 478.466 149.41 478.466 149.41L476.453 150.537C476.453 150.537 464.375 142.163 464.677 141.237Z" fill="#2F2159"/>
</g>
</g>
<path id="Vector_35" d="M342.409 282.43H259.877C257.934 282.428 256.039 283.027 254.45 284.144C252.86 285.261 251.655 286.842 251 288.67L232.641 339.76C232.132 341.184 231.972 342.709 232.175 344.208C232.378 345.707 232.938 347.135 233.808 348.372C234.678 349.609 235.833 350.619 237.175 351.317C238.516 352.014 240.006 352.38 241.518 352.381H330.211C332.33 352.382 334.387 351.669 336.052 350.358C337.717 349.048 338.893 347.215 339.39 345.155L351.689 294.065C352.023 292.67 352.034 291.217 351.722 289.816C351.41 288.416 350.782 287.105 349.888 285.984C348.993 284.862 347.855 283.959 346.559 283.343C345.263 282.728 343.844 282.415 342.409 282.43Z" fill="#2C3184"/>
<path id="Vector_36" d="M334.377 343.484L346.837 293.965C347.028 293.121 347.023 292.245 346.823 291.403C346.623 290.561 346.234 289.776 345.684 289.108C345.134 288.44 344.439 287.907 343.652 287.548C342.864 287.19 342.005 287.016 341.141 287.04H260.843C259.653 287.025 258.488 287.374 257.502 288.039C256.516 288.705 255.758 289.656 255.327 290.764L236.727 340.264C236.421 341.13 236.332 342.057 236.467 342.966C236.601 343.874 236.956 344.736 237.5 345.476C238.043 346.216 238.76 346.812 239.586 347.213C240.413 347.613 241.325 347.805 242.243 347.772H328.68C329.972 347.794 331.234 347.384 332.266 346.608C333.298 345.831 334.041 344.732 334.377 343.484Z" fill="#EEF9FF"/>
<path id="Vector_37" d="M447.325 363.716C447.325 364.611 447.148 365.498 446.805 366.324C446.462 367.151 445.959 367.902 445.325 368.534C444.691 369.166 443.939 369.667 443.111 370.008C442.283 370.349 441.396 370.523 440.501 370.52H123.899C122.094 370.52 120.364 369.803 119.088 368.527C117.812 367.251 117.095 365.52 117.095 363.716C117.095 361.911 117.812 360.181 119.088 358.905C120.364 357.629 122.094 356.912 123.899 356.912H440.501C442.307 356.912 444.04 357.628 445.319 358.904C446.599 360.179 447.32 361.91 447.325 363.716Z" fill="#9FC0C9"/>
<path id="Vector_38" opacity="0.69" d="M300.861 356.912L292.165 370.52H160.637L165.87 356.912H300.861Z" fill="#6987A8"/>
<path id="Vector_39" d="M428.403 370.519L447.929 544.179C447.98 544.688 447.923 545.202 447.763 545.688C447.603 546.174 447.343 546.62 447 547C446.657 547.379 446.238 547.682 445.771 547.89C445.303 548.097 444.797 548.205 444.286 548.205C443.387 548.201 442.521 547.866 441.853 547.265C441.185 546.663 440.761 545.837 440.663 544.944L421.338 370.479L428.403 370.519Z" fill="#2C3184"/>
<path id="Vector_40" d="M134.709 370.519L115.183 544.179C115.132 544.688 115.188 545.202 115.349 545.688C115.509 546.174 115.769 546.62 116.112 547C116.455 547.379 116.874 547.682 117.341 547.89C117.809 548.097 118.315 548.205 118.826 548.205C119.728 548.206 120.599 547.873 121.271 547.271C121.944 546.67 122.37 545.841 122.47 544.944L141.774 370.479L134.709 370.519Z" fill="#2C3184"/>
<path id="Vector_41" d="M333.994 352.382H193.266C192.684 352.402 192.132 352.646 191.724 353.061C191.315 353.477 191.082 354.034 191.072 354.616C191.078 355.216 191.32 355.789 191.746 356.212C192.172 356.634 192.747 356.871 193.347 356.871H333.994C334.594 356.871 335.17 356.634 335.596 356.212C336.022 355.789 336.264 355.216 336.269 354.616C336.258 354.02 336.014 353.452 335.589 353.034C335.163 352.616 334.591 352.382 333.994 352.382Z" fill="#2F2159"/>
<path id="Vector_42" d="M333.854 295.877H298.969C298.467 295.88 297.979 296.035 297.569 296.323C297.159 296.611 296.846 297.017 296.674 297.488L289.024 318.201C288.888 318.571 288.843 318.967 288.893 319.358C288.943 319.748 289.087 320.12 289.313 320.443C289.538 320.765 289.839 321.029 290.188 321.21C290.538 321.391 290.926 321.484 291.319 321.483H327.553C328.077 321.487 328.589 321.32 329.01 321.008C329.431 320.695 329.74 320.254 329.888 319.751L336.229 299.038C336.344 298.669 336.37 298.278 336.304 297.898C336.238 297.517 336.083 297.158 335.851 296.849C335.619 296.541 335.317 296.291 334.969 296.122C334.622 295.953 334.24 295.87 333.854 295.877Z" fill="#9FC0C9"/>
<path id="Vector_43" d="M334.941 292.817H300.036C299.539 292.816 299.054 292.968 298.647 293.252C298.24 293.537 297.931 293.94 297.761 294.407L290.112 315.12C289.976 315.488 289.931 315.883 289.98 316.272C290.029 316.66 290.171 317.032 290.394 317.354C290.618 317.676 290.915 317.939 291.262 318.122C291.609 318.304 291.995 318.4 292.387 318.402H328.62C329.141 318.401 329.647 318.234 330.067 317.927C330.486 317.619 330.798 317.186 330.955 316.691L337.296 295.957C337.407 295.591 337.43 295.204 337.363 294.828C337.297 294.452 337.143 294.096 336.913 293.791C336.684 293.485 336.386 293.238 336.043 293.068C335.701 292.899 335.323 292.813 334.941 292.817Z" fill="white"/>
<g id="hand-1">
<path id="Vector_44" d="M306.034 280.134C306.034 280.134 307.564 274.981 308.329 271.518C309.22 266.538 310.637 261.666 312.556 256.984C314.871 252.153 320.608 240.619 322.621 241.545C324.634 242.471 319.299 253.301 320.084 254.609C320.87 255.918 325.54 259.36 326.123 263.144C326.707 266.929 318.071 272.907 317.125 274.739C316.187 277.96 315.514 281.252 315.112 284.582C315.112 284.582 305.953 282.328 306.034 280.134Z" fill="#F9C3A5"/>
</g>
<path id="Vector_45" d="M309.98 539.569C311.353 541.684 311.95 544.209 311.671 546.715C311.148 550.741 310.141 554.767 314.288 556.156C318.435 557.545 344.885 555.633 348.046 553.7C348.688 553.371 349.249 552.902 349.686 552.328C350.124 551.754 350.427 551.089 350.574 550.383C350.72 549.676 350.707 548.945 350.534 548.245C350.361 547.544 350.034 546.89 349.576 546.333C347.885 544.32 332.123 543.797 328.137 541.904C325.725 540.737 323.647 538.978 322.098 536.791C322.098 536.791 309.839 535.1 309.98 539.569Z" fill="#1D163D"/>
<path id="Vector_46" d="M344.462 538.1C345.829 540.217 346.426 542.74 346.152 545.246C345.609 549.272 344.623 553.298 348.769 554.707C352.916 556.116 379.367 554.163 382.507 552.251C383.151 551.921 383.714 551.452 384.154 550.877C384.593 550.302 384.898 549.636 385.047 548.927C385.196 548.219 385.184 547.486 385.013 546.783C384.841 546.08 384.515 545.424 384.057 544.863C382.366 542.85 366.605 542.347 362.599 540.455C360.187 539.287 358.109 537.528 356.56 535.342C356.56 535.342 344.321 533.651 344.462 538.1Z" fill="#2F2159"/>
<path id="Vector_47" d="M210.458 417.905C210.458 417.905 277.027 413.658 282.704 421.508C288.38 429.359 327.815 528.74 323.889 535.645C319.964 542.549 309.376 542.569 307.987 541.683C306.598 540.798 275.236 465.331 272.699 461.406C270.163 457.48 249.65 457.702 249.65 457.702C249.65 457.702 195.3 466.378 184.611 443.087C173.922 419.797 173.902 419.032 210.458 417.905Z" fill="#65396B"/>
<path id="Vector_48" d="M244.88 416.294C244.88 416.294 311.429 412.026 317.106 419.877C322.782 427.727 362.217 527.108 358.312 534.033C354.406 540.958 343.778 540.938 342.389 540.072C341 539.206 309.638 463.76 307.101 459.834C304.565 455.909 284.052 456.131 284.052 456.131C284.052 456.131 229.702 464.807 219.013 441.516C208.324 418.226 208.304 417.441 244.88 416.294Z" fill="#72297D"/>
<path id="Vector_49" d="M317.106 285.048C317.247 290.422 303.881 331.789 294.964 336.862C286.046 341.935 245.444 329.333 245.444 329.333C248.265 337.77 248.745 346.814 246.833 355.502C243.451 368.566 243.008 373.8 243.451 389.24C243.894 403.592 246.31 409.652 247.477 412.289L247.739 412.852C248.826 415.147 242.525 417.764 236.527 419.314C230.528 420.864 206.775 421.911 190.631 419.314C174.486 416.717 171.024 415.066 171.024 410.698C171.024 407.196 174.245 375.209 175.573 362.387L176.097 357.032C176.097 357.032 167.803 355.925 165.71 349.443C163.616 342.961 169.736 318.765 173.762 307.694C177.788 296.622 182.76 290.624 191.275 291.308C199.79 291.992 228.958 290.543 228.958 290.543C228.958 290.543 244.579 294.569 251.221 298.595C257.864 302.621 284.758 317.96 285.986 317.96C287.214 317.96 303.358 278.123 304.747 277.982C306.136 277.841 316.945 279.673 317.106 285.048Z" fill="#F9814E"/>
<g id="Group_2" opacity="0.7">
<path id="Vector_50" d="M176.116 356.911L181.189 311.961L172.513 355.884L176.116 356.911Z" fill="#F47451"/>
</g>
<g id="Group_3" opacity="0.7">
<path id="Vector_51" d="M236.545 419.273C230.506 420.803 206.793 421.87 190.648 419.273C174.504 416.676 171.042 415.026 171.042 410.657C171.042 407.155 174.263 375.168 175.591 362.346C181.919 364.018 187.725 367.25 192.48 371.746C200.271 379.798 214.14 399.928 220.984 409.993C222.291 411.958 224.101 413.536 226.225 414.563C228.35 415.59 230.711 416.027 233.062 415.831C238.003 415.439 242.849 414.256 247.415 412.328L247.676 412.892C248.844 415.106 242.543 417.723 236.545 419.273Z" fill="#F47451"/>
</g>
<g id="Group_4" opacity="0.7">
<path id="Vector_52" d="M245.443 329.334L237.471 323.798L247.476 337.909L245.443 329.334Z" fill="#F47451"/>
</g>
<g id="Group_5" opacity="0.7">
<path id="Vector_53" d="M189.581 292.436C189.581 292.436 188.877 327.24 203.33 334.426C217.783 341.613 228.231 330.863 232.84 321.644C237.45 312.425 231.874 291.188 231.874 291.188L189.581 292.436Z" fill="#F47451"/>
</g>
<path id="Vector_54" d="M246.992 235.849C246.992 235.849 250.837 268.056 245.462 277.054C240.087 286.053 227.627 283.516 227.627 283.516C227.627 283.516 216.254 263.527 223.017 251.308C229.781 239.09 246.992 235.849 246.992 235.849Z" fill="#F9C3A5"/>
<path id="Vector_55" d="M247.437 238.927C249.215 237.151 250.449 234.904 250.994 232.451C251.54 229.998 251.374 227.44 250.516 225.078C247.739 216.321 241.297 216.482 228.374 214.469C215.45 212.456 195.924 215.858 191.637 234.458C187.349 253.058 191.777 278.885 189.946 293.801C188.114 308.717 193.005 331.162 208.687 331.162C224.368 331.162 232.218 315.944 232.52 306.1C232.822 296.257 229.601 288.889 232.057 282.589C234.513 276.288 234.976 272.524 233.144 269.525C231.313 266.525 227.75 261.473 228.998 257.225C230.246 252.978 232.681 252.293 235.037 255.071C237.392 257.849 239.183 256.44 240.733 252.595C242.547 247.845 244.791 243.27 247.437 238.927Z" fill="#482B33"/>
<path id="Vector_56" d="M206.312 559.195L209.312 444.274C209.328 443.921 209.274 443.568 209.153 443.235C209.032 442.903 208.846 442.598 208.607 442.338C208.367 442.078 208.078 441.867 207.757 441.72C207.436 441.572 207.089 441.489 206.735 441.476C206.37 441.465 206.007 441.526 205.666 441.656C205.325 441.786 205.012 441.982 204.747 442.232C204.481 442.483 204.268 442.783 204.119 443.116C203.969 443.449 203.887 443.808 203.877 444.173L200.515 559.095C200.496 559.456 200.55 559.818 200.673 560.159C200.796 560.5 200.986 560.813 201.231 561.079C201.477 561.346 201.774 561.56 202.103 561.71C202.433 561.86 202.79 561.943 203.152 561.953H203.514C203.879 561.956 204.241 561.886 204.579 561.749C204.917 561.612 205.225 561.41 205.485 561.154C205.744 560.898 205.951 560.593 206.093 560.257C206.235 559.921 206.31 559.56 206.312 559.195Z" fill="#2F2159"/>
<path id="Vector_57" d="M135.272 571.817L169.936 463.76C170.149 463.081 170.622 462.514 171.252 462.182C171.882 461.85 172.617 461.781 173.298 461.989C173.647 462.09 173.972 462.26 174.255 462.489C174.537 462.718 174.77 463.002 174.941 463.323C175.112 463.644 175.217 463.996 175.249 464.358C175.281 464.72 175.241 465.085 175.129 465.431L140.909 573.589C140.799 573.933 140.622 574.253 140.388 574.529C140.155 574.805 139.869 575.031 139.547 575.196C139.225 575.361 138.873 575.46 138.513 575.488C138.152 575.516 137.79 575.473 137.446 575.36L137.104 575.239C136.759 575.136 136.437 574.965 136.158 574.737C135.878 574.508 135.647 574.227 135.477 573.909C135.307 573.591 135.201 573.243 135.166 572.884C135.131 572.525 135.167 572.162 135.272 571.817Z" fill="#2C3184"/>
<path id="Vector_58" d="M298.788 561.753L258.528 454.058C258.287 453.386 257.789 452.837 257.144 452.531C256.499 452.225 255.759 452.188 255.086 452.427C254.397 452.689 253.839 453.213 253.534 453.884C253.229 454.554 253.2 455.319 253.455 456.01L293.353 563.826C293.471 564.168 293.658 564.483 293.901 564.751C294.145 565.019 294.44 565.234 294.77 565.385C295.099 565.535 295.455 565.618 295.817 565.626C296.179 565.635 296.539 565.571 296.876 565.436L297.218 565.295C297.889 565.026 298.429 564.505 298.723 563.843C299.016 563.181 299.039 562.431 298.788 561.753Z" fill="#2F2159"/>
<path id="Vector_59" d="M226.399 575.38L212.812 461.304C212.736 460.595 212.382 459.944 211.827 459.495C211.272 459.046 210.562 458.836 209.853 458.909C209.489 458.951 209.137 459.065 208.817 459.244C208.497 459.423 208.216 459.664 207.99 459.952C207.763 460.24 207.596 460.57 207.498 460.923C207.4 461.276 207.372 461.645 207.417 462.009L220.642 576.044C220.679 576.405 220.789 576.755 220.964 577.073C221.14 577.39 221.377 577.669 221.663 577.893C221.948 578.116 222.276 578.28 222.627 578.374C222.977 578.468 223.343 578.491 223.702 578.44H224.064C224.771 578.326 225.407 577.944 225.842 577.375C226.276 576.806 226.476 576.092 226.399 575.38Z" fill="#2C3184"/>
<path id="Vector_60" d="M292.063 461.667C291.864 461.897 291.649 462.112 291.419 462.311C284.052 468.995 251.16 482.441 232.399 484.676C213.638 486.91 191.555 487.212 174.284 479.382C157.012 471.551 141.754 441.135 141.754 411.564C141.481 404.227 143.096 396.942 146.444 390.408C147.89 387.537 149.924 385.002 152.414 382.97C154.904 380.938 157.795 379.453 160.897 378.611C169.432 376.981 181.41 375.592 192.481 383.443C203.552 391.293 219.254 420.804 231.473 427.487C243.691 434.17 275.98 428.171 287.051 432.338C297.76 436.364 298.747 454.461 292.063 461.667Z" fill="#9FC0C9"/>
<path id="Vector_61" d="M292.063 461.667C291.864 461.897 291.649 462.112 291.419 462.311C284.052 468.995 251.16 482.441 232.399 484.676C213.638 486.91 191.555 487.212 174.284 479.382C157.012 471.551 141.754 441.135 141.754 411.564C141.481 404.227 143.096 396.942 146.444 390.408C154.496 382.899 166.232 378.43 179.658 392.421C205.485 419.173 199.003 474.953 226.4 477.288C247.959 479.019 280.489 464.264 292.063 461.667Z" fill="#DCEAEF"/>
<path id="Vector_62" d="M258.379 4.03418H176.732C173.252 4.03418 170.431 6.85508 170.431 10.3348V91.9815C170.431 95.4613 173.252 98.2822 176.732 98.2822H258.379C261.858 98.2822 264.679 95.4613 264.679 91.9815V10.3348C264.679 6.85508 261.858 4.03418 258.379 4.03418Z" fill="#FBFBFB"/>
<g id="ball-7">
<g id="Group 1216400391" opacity="0.5">
<path id="Vector_63" d="M240.76 24.1839C240.738 27.2619 240.035 30.2968 238.702 33.0715C237.37 35.8461 235.44 38.2918 233.052 40.2336C230.663 42.1753 227.875 43.5651 224.887 44.3033C221.899 45.0416 218.784 45.1102 215.767 44.5041C212.749 43.898 209.902 42.6322 207.431 40.7974C204.959 38.9626 202.924 36.6041 201.471 33.8908C200.017 31.1775 199.182 28.1764 199.024 25.1024C198.866 22.0284 199.389 18.9575 200.557 16.1094L219.848 24.1939L218.854 3.31154C219.182 3.31154 219.52 3.31154 219.848 3.31154C222.592 3.30762 225.31 3.84451 227.846 4.89157C230.383 5.93863 232.688 7.47532 234.63 9.41376C236.572 11.3522 238.113 13.6544 239.165 16.1888C240.217 18.7231 240.759 21.4399 240.76 24.1839Z" fill="#ADD5C4"/>
<path id="Vector_64" d="M216.965 0C213.016 0.182919 209.201 1.48264 205.962 3.74811C202.723 6.01358 200.194 9.15175 198.668 12.7979L217.959 20.8823L216.965 0Z" fill="#B1CDB1"/>
</g>
</g>
<g id="ball-6">
<path id="Vector_65" d="M285.783 87.7363H273.544C270.065 87.7363 267.244 90.5572 267.244 94.037V106.276C267.244 109.756 270.065 112.577 273.544 112.577H285.783C289.263 112.577 292.084 109.756 292.084 106.276V94.037C292.084 90.5572 289.263 87.7363 285.783 87.7363Z" fill="#DCEAEF"/>
</g>
<g id="Group 1216400618">
<path id="Vector_66" d="M226.714 118.999H186.816C183.337 118.999 180.516 121.82 180.516 125.3V165.197C180.516 168.677 183.337 171.498 186.816 171.498H226.714C230.193 171.498 233.014 168.677 233.014 165.197V125.3C233.014 121.82 230.193 118.999 226.714 118.999Z" fill="#F4F4F4"/>
<path id="Vector_67" d="M193.478 136.19C195.346 136.19 196.86 134.676 196.86 132.809C196.86 130.941 195.346 129.427 193.478 129.427C191.61 129.427 190.096 130.941 190.096 132.809C190.096 134.676 191.61 136.19 193.478 136.19Z" fill="#C3D4DB"/>
<path id="Vector_68" d="M193.478 148.631C195.346 148.631 196.86 147.117 196.86 145.249C196.86 143.381 195.346 141.867 193.478 141.867C191.61 141.867 190.096 143.381 190.096 145.249C190.096 147.117 191.61 148.631 193.478 148.631Z" fill="#C3D4DB"/>
<path id="Vector_69" d="M193.478 161.07C195.346 161.07 196.86 159.556 196.86 157.688C196.86 155.821 195.346 154.307 193.478 154.307C191.61 154.307 190.096 155.821 190.096 157.688C190.096 159.556 191.61 161.07 193.478 161.07Z" fill="#C3D4DB"/>
<path id="Vector_70" d="M219.005 130.533H203.908C202.863 130.533 202.015 131.381 202.015 132.426V132.446C202.015 133.491 202.863 134.338 203.908 134.338H219.005C220.05 134.338 220.897 133.491 220.897 132.446V132.426C220.897 131.381 220.05 130.533 219.005 130.533Z" fill="#C3D4DB"/>
<path id="Vector_71" d="M219.005 143.015H203.908C202.863 143.015 202.016 143.862 202.016 144.907V144.927C202.016 145.972 202.863 146.819 203.908 146.819H219.005C220.05 146.819 220.897 145.972 220.897 144.927V144.907C220.897 143.862 220.05 143.015 219.005 143.015Z" fill="#C3D4DB"/>
<path id="Vector_72" d="M219.005 155.494H203.908C202.863 155.494 202.015 156.341 202.015 157.386V157.406C202.015 158.451 202.863 159.298 203.908 159.298H219.005C220.05 159.298 220.897 158.451 220.897 157.406V157.386C220.897 156.341 220.05 155.494 219.005 155.494Z" fill="#C3D4DB"/>
</g>
<g id="ball-4">
<path id="Vector_73" d="M80.4222 350.785C80.4222 351.969 80.071 353.127 79.413 354.112C78.755 355.097 77.8198 355.864 76.7256 356.318C75.6314 356.771 74.4274 356.889 73.2658 356.658C72.1041 356.427 71.0371 355.857 70.1996 355.02C69.3621 354.182 68.7919 353.115 68.5609 351.953C68.3298 350.792 68.4484 349.588 68.9016 348.494C69.3549 347.399 70.1224 346.464 71.1071 345.806C72.0919 345.148 73.2496 344.797 74.434 344.797C76.0222 344.797 77.5453 345.428 78.6684 346.551C79.7914 347.674 80.4222 349.197 80.4222 350.785Z" fill="#F3E4F4"/>
</g>
<g id="ball-5">
<path id="Vector_74" d="M78.366 417.674C78.366 419.688 77.7689 421.656 76.6503 423.33C75.5317 425.004 73.9419 426.309 72.0817 427.079C70.2216 427.85 68.1747 428.051 66.1999 427.659C64.2252 427.266 62.4112 426.296 60.9875 424.873C59.5638 423.449 58.5943 421.635 58.2015 419.66C57.8087 417.685 58.0103 415.639 58.7808 413.778C59.5513 411.918 60.8562 410.328 62.5303 409.21C64.2044 408.091 66.1725 407.494 68.1859 407.494C70.8858 407.494 73.4752 408.567 75.3843 410.476C77.2934 412.385 78.366 414.974 78.366 417.674Z" fill="#F3E4F4"/>
</g>
<g id="ball-1">
<path id="Vector_75" d="M487.927 383.322C491.073 383.322 493.624 380.772 493.624 377.625C493.624 374.479 491.073 371.929 487.927 371.929C484.781 371.929 482.23 374.479 482.23 377.625C482.23 380.772 484.781 383.322 487.927 383.322Z" fill="#DCEAEF"/>
</g>
<g id="ball-2">
<path id="Vector_76" d="M538.917 422.112C538.917 423.494 538.508 424.844 537.74 425.993C536.973 427.141 535.882 428.037 534.605 428.565C533.329 429.094 531.925 429.232 530.57 428.963C529.215 428.693 527.97 428.028 526.993 427.051C526.016 426.074 525.351 424.83 525.081 423.475C524.812 422.12 524.95 420.715 525.479 419.439C526.008 418.163 526.903 417.072 528.052 416.304C529.2 415.537 530.551 415.127 531.932 415.127C532.85 415.127 533.758 415.308 534.605 415.659C535.453 416.01 536.223 416.524 536.871 417.173C537.52 417.821 538.035 418.591 538.386 419.439C538.737 420.286 538.917 421.195 538.917 422.112Z" fill="#DCEAEF"/>
</g>
<g id="ball-3">
<path id="Vector_77" d="M508.542 464.667C508.542 465.566 508.275 466.446 507.775 467.194C507.275 467.942 506.565 468.525 505.734 468.87C504.902 469.214 503.988 469.304 503.105 469.128C502.223 468.953 501.412 468.52 500.776 467.883C500.14 467.247 499.706 466.437 499.531 465.554C499.355 464.672 499.445 463.757 499.79 462.926C500.134 462.094 500.717 461.384 501.465 460.884C502.213 460.384 503.093 460.117 503.993 460.117C505.199 460.117 506.356 460.596 507.21 461.45C508.063 462.303 508.542 463.46 508.542 464.667Z" fill="#DCEAEF"/>
</g>
<g id="setting-1">
<g id="Group 1216400674">
<path id="Vector_78" d="M433.787 96.1888L433.475 95.9576C433.631 95.683 433.773 95.394 433.915 95.1195L434.284 95.2351C434.566 95.3359 434.864 95.3849 435.163 95.3795V95.2784V95.1484V95.0472C434.973 94.8154 434.748 94.6155 434.496 94.4547L434.17 94.2524C434.283 93.9634 434.411 93.6744 434.511 93.371L434.879 93.4577C435.175 93.5058 435.477 93.5058 435.773 93.4577V93.3565V93.2265V93.1109C435.559 92.9051 435.315 92.7345 435.049 92.6051L434.709 92.4317L434.964 91.5214H435.333C435.629 91.5761 435.931 91.5761 436.227 91.5214V91.4202V91.2902V91.1746C435.988 90.9852 435.719 90.8386 435.432 90.7411C435.32 90.6831 435.201 90.6395 435.078 90.611C435.078 90.2931 435.191 89.9752 435.248 89.6718H435.617C435.916 89.6756 436.213 89.6267 436.496 89.5273V89.2238C436.244 89.0603 435.966 88.9429 435.674 88.877L435.305 88.7903C435.305 88.4724 435.305 88.1545 435.305 87.8366H435.688C435.982 87.8068 436.269 87.7288 436.539 87.6054V87.2441C436.267 87.1085 435.974 87.0206 435.674 86.984H435.305C435.305 86.6661 435.305 86.3482 435.305 86.0303H435.688C435.977 85.9641 436.255 85.8519 436.51 85.698V85.3367C436.227 85.2368 435.931 85.1831 435.631 85.1778H435.248C435.248 84.8599 435.248 84.542 435.12 84.2385L435.489 84.1085C435.774 84.0193 436.043 83.8825 436.284 83.7038V83.5883V83.4582V83.3426C435.991 83.2704 435.69 83.246 435.39 83.2704H435.007C435.007 82.9669 434.865 82.6635 434.78 82.3455L435.135 82.201C435.408 82.0707 435.661 81.9003 435.886 81.6953V81.5941V81.4641V81.3485C435.595 81.3044 435.299 81.3044 435.007 81.3485L434.624 81.4207C434.525 81.1173 434.411 80.8138 434.298 80.5248L434.638 80.3225C434.896 80.1702 435.13 79.9804 435.333 79.759V79.6578V79.5278V79.4266C435.036 79.418 434.739 79.457 434.454 79.5422L434.085 79.6434C433.957 79.3544 433.815 79.0798 433.674 78.7908L433.986 78.5741C434.223 78.3889 434.433 78.1699 434.61 77.9238V77.8227V77.707V77.6059C434.311 77.6259 434.018 77.6993 433.745 77.8227L433.39 77.9672C433.234 77.6926 433.064 77.418 432.894 77.1579L433.177 76.8978C433.402 76.6976 433.589 76.4578 433.73 76.1898V76.1031L433.659 75.9875V75.9008C433.367 75.9583 433.085 76.0606 432.823 76.2042L432.482 76.3776C432.298 76.132 432.113 75.8719 431.901 75.6262L432.156 75.3517C432.362 75.1264 432.53 74.8675 432.652 74.5858L432.567 74.4991L432.482 74.398V74.3113C432.194 74.3955 431.921 74.5273 431.674 74.7014L431.362 74.9182C431.149 74.687 430.936 74.4558 430.709 74.239C430.79 74.1372 430.866 74.0311 430.936 73.9211C431.114 73.6752 431.253 73.4021 431.347 73.1119L431.262 73.0397L431.163 72.9385L431.078 72.8662C430.805 72.986 430.552 73.1467 430.326 73.3431L430.028 73.5888L429.319 72.9818L429.504 72.6495C429.651 72.3825 429.761 72.0954 429.83 71.7969L429.73 71.7247L429.631 71.6524H429.546C429.282 71.7948 429.042 71.9803 428.837 72.2016L428.567 72.4906L427.787 71.9559C427.787 71.9559 427.901 71.7247 427.958 71.5946C428.077 71.3194 428.154 71.0269 428.184 70.7276H428.085L427.972 70.6554H427.872C427.629 70.8273 427.414 71.037 427.234 71.2767L426.993 71.5802L426.171 71.1322C426.217 71.0147 426.254 70.894 426.284 70.771C426.382 70.483 426.43 70.1799 426.426 69.8751H426.327H426.213H426.1C425.87 70.0722 425.673 70.3065 425.518 70.5687L425.319 70.901L424.454 70.5398C424.454 70.4531 424.454 70.2941 424.539 70.1641C424.587 69.8625 424.587 69.5553 424.539 69.2537H424.44H424.312H424.213C424.002 69.4723 423.829 69.7265 423.702 70.0051C423.702 70.1207 423.575 70.2797 423.532 70.3519C423.23 70.2556 422.932 70.1689 422.639 70.0918C422.639 70.0051 422.639 69.8317 422.639 69.7017C422.689 69.4004 422.689 69.0926 422.639 68.7913H422.539H422.412H422.298C422.11 69.0275 421.966 69.2969 421.873 69.5861C421.873 69.7017 421.774 69.8751 421.745 69.9473L420.823 69.7884V69.3982C420.825 69.0937 420.777 68.7909 420.681 68.5023H420.327C420.174 68.7631 420.059 69.0455 419.986 69.3404C419.986 69.4705 419.915 69.6294 419.901 69.7161L418.965 69.6439C418.965 69.5716 418.965 69.3982 418.965 69.2682C418.936 68.964 418.859 68.6665 418.738 68.3867H418.114C417.979 68.658 417.892 68.9515 417.859 69.2537C417.859 69.3838 417.859 69.5572 417.859 69.6294H416.923C416.923 69.5427 416.923 69.3838 416.923 69.2537C416.867 68.9534 416.762 68.665 416.61 68.4012H416.256C416.149 68.6877 416.092 68.9907 416.086 69.2971C416.086 69.4271 416.086 69.6005 416.086 69.6872C415.774 69.6872 415.476 69.7739 415.164 69.8173C415.164 69.745 415.164 69.5716 415.05 69.4416C414.951 69.1537 414.812 68.8813 414.639 68.6324H414.525H414.398H414.299C414.218 68.9284 414.189 69.2365 414.213 69.5427C414.213 69.6728 414.213 69.8462 414.213 69.9329L413.306 70.1641C413.306 70.0918 413.206 69.9329 413.15 69.8028C413.023 69.527 412.861 69.2695 412.668 69.037H412.554H412.426H412.327C412.278 69.3384 412.278 69.646 412.327 69.9473C412.327 70.0774 412.327 70.2508 412.398 70.323L411.519 70.6554C411.519 70.6554 411.405 70.4242 411.334 70.3086C411.186 70.0456 410.994 69.8109 410.767 69.615H410.668H410.54H410.441C410.433 69.9225 410.471 70.2295 410.554 70.5253C410.554 70.6554 410.639 70.8143 410.668 70.901L409.817 71.3057L409.604 71.0022C409.424 70.7541 409.209 70.5349 408.966 70.3519H408.866H408.753H408.653C408.683 70.6593 408.754 70.9609 408.866 71.2478L409.008 71.5946L408.214 72.1004L407.958 71.8114C407.765 71.5853 407.534 71.3947 407.278 71.2478H407.178L407.079 71.3345H406.98C407.035 71.6374 407.135 71.9299 407.278 72.2016L407.462 72.5339C407.207 72.7218 406.966 72.9241 406.724 73.1264L406.441 72.8662C406.217 72.6631 405.963 72.4972 405.689 72.3749H405.604L405.505 72.4616L405.42 72.5339C405.502 72.8279 405.632 73.1061 405.802 73.3576L406.015 73.6755C405.788 73.8922 405.561 74.109 405.349 74.3402L405.037 74.109C404.795 73.9274 404.527 73.7859 404.242 73.6899L404.171 73.7766L404.086 73.8778L404.001 73.9645C404.12 74.2459 404.278 74.5087 404.469 74.7448L404.71 75.0338C404.512 75.265 404.313 75.5106 404.115 75.7707L403.788 75.5684C403.527 75.4154 403.245 75.3034 402.952 75.2361V75.3372L402.881 75.4384V75.5395C403.025 75.8059 403.206 76.0494 403.42 76.262L403.703 76.5221C403.519 76.7823 403.349 77.0423 403.178 77.3169L402.824 77.1579C402.555 77.0286 402.268 76.9456 401.973 76.9123V77.0134L401.902 77.1291V77.2302C402.071 77.4817 402.277 77.7058 402.512 77.8949L402.81 78.1261C402.654 78.4007 402.512 78.6896 402.37 78.9642L402.015 78.8486C401.733 78.7486 401.435 78.6997 401.136 78.7041V78.8052V78.9353V79.0365C401.33 79.2707 401.56 79.4708 401.817 79.6289L402.143 79.8312C402.015 80.1202 401.902 80.4237 401.788 80.7127L401.42 80.626C401.124 80.5779 400.822 80.5779 400.526 80.626V80.7271V80.8572V80.9728C400.744 81.1798 400.993 81.3505 401.264 81.4785C401.373 81.545 401.486 81.603 401.604 81.6519C401.5 81.9506 401.415 82.254 401.349 82.5623H400.966C400.675 82.5067 400.377 82.5067 400.086 82.5623V82.6779V82.8079V82.9091C400.321 83.0966 400.585 83.2431 400.866 83.3426L401.221 83.4727C401.221 83.7906 401.108 84.1085 401.065 84.4119H400.682C400.383 84.4103 400.086 84.4591 399.803 84.5564V84.8888C400.055 85.0523 400.334 85.1697 400.625 85.2356L400.994 85.3223C400.994 85.6402 400.994 85.9581 400.994 86.276H400.611C400.313 86.306 400.021 86.384 399.746 86.5072V86.8684C400.012 87.006 400.3 87.0941 400.597 87.1285H400.98C400.98 87.4464 400.98 87.7643 400.98 88.0823L400.611 88.1545C400.318 88.2226 400.036 88.3346 399.774 88.4869V88.8481C400.058 88.9467 400.354 89.0003 400.654 89.0071H401.037L401.164 89.9463L400.81 90.0764C400.525 90.1655 400.256 90.3023 400.016 90.481V90.6688V90.7989V90.9145C400.311 90.9626 400.613 90.9626 400.909 90.9145H401.292C401.292 91.2179 401.434 91.5214 401.519 91.8393C401.398 91.8845 401.279 91.9376 401.164 91.9982C400.893 92.118 400.643 92.2841 400.427 92.4895V92.5907V92.7207V92.8363C400.723 92.8804 401.024 92.8804 401.32 92.8363L401.689 92.7641C401.789 93.0675 401.902 93.371 402.015 93.66L401.689 93.8623C401.428 94.0092 401.193 94.1997 400.994 94.4259V94.527V94.657V94.7582C401.291 94.7657 401.588 94.7267 401.874 94.6426L402.242 94.5414C402.37 94.8304 402.512 95.105 402.654 95.394L402.342 95.6252C402.097 95.8015 401.882 96.0161 401.703 96.261V96.3622V96.4778V96.5789C402.002 96.5574 402.294 96.4841 402.569 96.3622L402.909 96.2177C403.079 96.4922 403.235 96.7668 403.42 97.0269C403.318 97.105 403.223 97.192 403.136 97.287C402.909 97.4885 402.717 97.7279 402.569 97.995L402.639 98.0817V98.1973V98.284C402.939 98.237 403.227 98.1341 403.49 97.9806L403.817 97.8072L404.398 98.5586L404.143 98.8331C403.944 99.0609 403.781 99.3194 403.661 99.599V99.6857L403.746 99.7868V99.8735C404.034 99.7893 404.307 99.6575 404.554 99.4834L404.866 99.2666C405.079 99.4978 405.292 99.729 405.519 99.9458L405.292 100.264C405.113 100.507 404.978 100.781 404.895 101.073V101.145L404.994 101.246H405.079C405.359 101.133 405.618 100.972 405.845 100.769L406.129 100.524L406.852 101.131L406.654 101.463C406.506 101.729 406.401 102.016 406.341 102.316L406.427 102.388H406.526L406.625 102.46C406.887 102.313 407.126 102.128 407.334 101.911L407.59 101.636L408.37 102.157L408.214 102.518C408.094 102.793 408.018 103.086 407.987 103.385L408.072 103.457H408.185H408.285C408.531 103.285 408.752 103.075 408.937 102.836L409.164 102.532L410.001 102.98L409.873 103.342C409.784 103.632 409.736 103.933 409.731 104.237H409.831H409.958H410.058C410.287 104.04 410.484 103.806 410.639 103.544L410.838 103.212L411.703 103.573C411.703 103.659 411.703 103.818 411.703 103.948C411.653 104.25 411.653 104.558 411.703 104.859H411.817H411.93H412.043C412.248 104.64 412.419 104.391 412.554 104.122C412.554 103.992 412.682 103.847 412.71 103.761C413.008 103.862 413.306 103.948 413.618 104.021C413.618 104.107 413.618 104.281 413.618 104.411C413.573 104.713 413.573 105.02 413.618 105.321H413.731H413.859H413.958C414.149 105.084 414.297 104.815 414.398 104.526L414.525 104.165L415.447 104.324C415.44 104.454 415.44 104.584 415.447 104.714C415.446 105.019 415.494 105.322 415.589 105.61H415.944C416.104 105.353 416.22 105.07 416.284 104.772C416.284 104.642 416.284 104.483 416.384 104.396L417.306 104.469C417.306 104.469 417.306 104.714 417.306 104.844C417.335 105.149 417.412 105.446 417.532 105.726H417.887C418.024 105.454 418.115 105.161 418.157 104.859C418.157 104.729 418.157 104.555 418.157 104.483C418.469 104.483 418.781 104.483 419.093 104.483C419.093 104.57 419.093 104.729 419.093 104.859C419.156 105.159 419.267 105.447 419.419 105.711H419.774C419.872 105.423 419.929 105.121 419.944 104.815V105.119L420.88 104.989C420.88 105.061 420.88 105.235 420.993 105.365C421.081 105.655 421.215 105.928 421.391 106.174H421.504H421.632H421.745C421.816 105.876 421.84 105.569 421.816 105.263C421.816 105.133 421.816 104.96 421.816 104.873L422.724 104.642L422.88 105.003C423 105.283 423.163 105.541 423.362 105.769H423.461H423.589H423.702C423.755 105.468 423.755 105.16 423.702 104.859C423.702 104.729 423.702 104.555 423.702 104.483L424.568 104.151L424.766 104.498C424.916 104.76 425.102 104.998 425.319 105.206H425.433H425.546H425.646C425.662 104.898 425.624 104.589 425.532 104.295C425.532 104.165 425.447 104.006 425.433 103.934L426.27 103.515L426.497 103.818C426.67 104.067 426.88 104.287 427.121 104.469H427.22L427.334 104.396H427.433C427.414 104.089 427.347 103.786 427.234 103.501C427.234 103.385 427.121 103.226 427.078 103.154L427.872 102.648L428.128 102.937C428.328 103.162 428.563 103.352 428.823 103.501H428.908L429.021 103.414H429.106C429.062 103.11 428.966 102.817 428.823 102.547L428.638 102.214C428.894 102.027 429.135 101.824 429.376 101.622L429.66 101.882C429.877 102.086 430.126 102.252 430.397 102.373L430.482 102.301L430.582 102.214L430.667 102.142C430.584 101.848 430.455 101.57 430.284 101.319L430.071 101.001L430.752 100.336C430.844 100.422 430.943 100.5 431.05 100.567C431.291 100.749 431.559 100.89 431.844 100.986V100.9L431.943 100.798V100.712C431.835 100.432 431.682 100.173 431.489 99.9458C431.41 99.8396 431.325 99.7382 431.234 99.6424C431.448 99.4099 431.647 99.1637 431.83 98.9054C431.939 98.98 432.053 99.0476 432.17 99.1077C432.427 99.2592 432.704 99.3712 432.993 99.4401V99.3389L433.078 99.2377V99.151C432.945 98.8776 432.762 98.6325 432.539 98.4285C432.454 98.3274 432.326 98.2118 432.269 98.154C432.44 97.8939 432.624 97.6338 432.78 97.3592L433.135 97.5182C433.408 97.6485 433.7 97.7316 434 97.7638V97.6627V97.5471V97.4459C434.017 97.0162 433.945 96.5877 433.787 96.1888ZM429.064 76.7822C431.182 79.1907 432.481 82.2315 432.766 85.4523C432.804 85.8589 432.742 86.2687 432.584 86.6442C432.427 87.0198 432.179 87.3492 431.865 87.6022C431.55 87.8553 431.178 88.0238 430.783 88.0925C430.388 88.1612 429.982 88.1279 429.603 87.9955L424.085 86.0448C423.768 85.9359 423.476 85.7602 423.229 85.5293C422.982 85.2983 422.785 85.0172 422.652 84.7039C422.518 84.3907 422.45 84.0525 422.453 83.7109C422.456 83.3694 422.528 83.0323 422.667 82.7212L425.078 77.3891C425.243 77.0168 425.497 76.6927 425.817 76.4463C426.137 76.1998 426.512 76.0391 426.909 75.9787C427.305 75.9183 427.71 75.9602 428.087 76.1006C428.463 76.241 428.799 76.4754 429.064 76.7822ZM412.327 72.9963C415.244 71.7356 418.48 71.4621 421.561 72.216C421.953 72.3022 422.317 72.4872 422.621 72.7541C422.925 73.021 423.158 73.3613 423.299 73.7438C423.44 74.1262 423.485 74.5387 423.429 74.9433C423.373 75.3479 423.218 75.7318 422.979 76.0597L419.504 80.7416C419.301 81.0104 419.045 81.2333 418.753 81.3963C418.461 81.5594 418.138 81.659 417.807 81.6888C417.475 81.7187 417.14 81.6782 416.825 81.5699C416.509 81.4616 416.219 81.2878 415.972 81.0595L411.717 77.0424C411.42 76.7714 411.193 76.429 411.058 76.0463C410.924 75.6637 410.885 75.2527 410.945 74.8508C411.006 74.449 411.164 74.0689 411.405 73.745C411.647 73.4212 411.963 73.1638 412.327 72.9963ZM406.98 90.1342C406.632 90.3341 406.241 90.4419 405.842 90.4477C405.443 90.4534 405.049 90.3569 404.696 90.167C404.343 89.9772 404.042 89.7 403.822 89.361C403.601 89.0219 403.468 88.6319 403.434 88.2267C403.125 85.0458 403.831 81.8481 405.448 79.1087L405.675 78.733C405.889 78.3981 406.18 78.1218 406.523 77.9281C406.865 77.7345 407.25 77.6295 407.642 77.6224C408.034 77.6153 408.421 77.7062 408.771 77.8872C409.12 78.0683 409.421 78.3339 409.646 78.6608L413.036 83.6027C413.227 83.8823 413.359 84.1995 413.423 84.534C413.486 84.8685 413.48 85.2128 413.406 85.5449C413.331 85.8769 413.189 86.1894 412.988 86.4621C412.788 86.7349 412.534 86.9619 412.242 87.1285L406.98 90.1342ZM415.178 101.521C413.533 101.194 411.958 100.573 410.526 99.6857C409.103 98.8293 407.833 97.735 406.767 96.4489C406.516 96.1403 406.345 95.7734 406.267 95.3807C406.189 94.9881 406.208 94.5819 406.322 94.1985C406.435 93.8151 406.641 93.4663 406.919 93.1833C407.197 92.9002 407.539 92.6917 407.916 92.5762L413.774 90.77C414.092 90.6705 414.428 90.6403 414.759 90.6812C415.09 90.7222 415.409 90.8335 415.695 91.0078C415.981 91.1821 416.228 91.4156 416.42 91.6932C416.612 91.9709 416.744 92.2865 416.809 92.6196L418.015 98.732C418.081 99.1223 418.052 99.5232 417.931 99.8996C417.81 100.276 417.601 100.617 417.321 100.892C417.041 101.167 416.7 101.368 416.326 101.478C415.953 101.587 415.559 101.602 415.178 101.521ZM423.788 100.654C423.42 100.813 423.02 100.875 422.623 100.837C422.226 100.798 421.845 100.659 421.514 100.432C421.183 100.206 420.912 99.8984 420.727 99.5384C420.542 99.1784 420.449 98.777 420.454 98.3707L420.568 92.2005C420.575 91.8601 420.653 91.5251 420.795 91.2169C420.937 90.9087 421.141 90.6342 421.393 90.4111C421.646 90.1879 421.941 90.021 422.261 89.921C422.58 89.8211 422.917 89.7903 423.249 89.8307L429.135 90.5243C429.526 90.571 429.9 90.7153 430.223 90.9442C430.547 91.1731 430.81 91.4797 430.989 91.8368C431.169 92.1939 431.259 92.5906 431.252 92.9918C431.245 93.3929 431.142 93.7862 430.95 94.1368L430.738 94.5126C429.133 97.2708 426.695 99.4254 423.788 100.654Z" fill="#AAC6EE"/>
</g>
</g>
<g id="setting-2">
<path id="Vector_79" d="M412.498 106.185H411.962C411.962 105.878 411.963 105.586 411.876 105.28C412.053 105.242 412.227 105.19 412.396 105.127C412.79 105.021 413.161 104.852 413.496 104.626V104.487V104.32V104.167C413.105 104.067 412.699 104.03 412.295 104.056H411.745C411.679 103.765 411.597 103.477 411.5 103.194L411.991 102.957C412.352 102.778 412.684 102.548 412.975 102.275V102.136V101.969V101.83C412.572 101.804 412.167 101.837 411.774 101.928L411.239 102.039C411.124 101.764 410.993 101.494 410.849 101.232C410.849 101.232 411.138 101.037 411.283 100.912C411.609 100.681 411.892 100.399 412.122 100.077L412.049 99.9523L411.962 99.8132V99.6741C411.558 99.7114 411.163 99.81 410.791 99.9662L410.285 100.175C410.111 99.9245 409.937 99.6741 409.749 99.4376C409.749 99.4376 409.995 99.2011 410.126 99.0481C410.41 98.7699 410.64 98.4448 410.805 98.0882L410.704 97.9769L410.588 97.8517L410.502 97.7404C410.106 97.8393 409.73 97.999 409.388 98.2134L408.94 98.5055L408.274 97.8656L408.578 97.4344C408.801 97.1051 408.967 96.7434 409.07 96.3632L408.954 96.2797L408.824 96.1684L408.708 96.0711C408.337 96.2297 407.999 96.4512 407.71 96.7249C407.551 96.8501 407.363 97.0309 407.305 97.0866C407.059 96.9057 406.799 96.7388 406.538 96.5719C406.538 96.4884 406.683 96.2658 406.755 96.085C406.918 95.7271 407.02 95.3468 407.059 94.9582L406.915 94.8886L406.77 94.8051L406.64 94.7217C406.308 94.9501 406.015 95.2271 405.772 95.5424C405.642 95.6816 405.497 95.8902 405.439 95.9598C405.167 95.8206 404.887 95.6952 404.6 95.5842C404.6 95.5007 404.687 95.2503 404.716 95.0695C404.812 94.6919 404.841 94.3017 404.803 93.9148H404.673H404.499H404.354C404.071 94.1948 403.832 94.5136 403.646 94.8608L403.4 95.3338C403.105 95.2403 402.806 95.1613 402.503 95.0973C402.503 95.0138 402.503 94.7634 402.503 94.5687C402.53 94.1803 402.491 93.7902 402.387 93.414H402.228H402.055H401.91C401.678 93.7317 401.502 94.0842 401.389 94.4574C401.325 94.6256 401.272 94.7975 401.23 94.9721C400.912 94.9721 400.608 94.9025 400.29 94.8886C400.299 94.7171 400.299 94.5454 400.29 94.3739C400.241 93.984 400.128 93.6038 399.957 93.2471H399.48C399.309 93.6038 399.197 93.984 399.147 94.3739C399.138 94.5454 399.138 94.7171 399.147 94.8886C398.829 94.8886 398.525 94.8886 398.207 94.9721C398.207 94.8886 398.12 94.6521 398.063 94.4574C397.943 94.0846 397.762 93.7325 397.527 93.414H397.383H397.209H397.05C396.946 93.7902 396.907 94.1803 396.934 94.5687C396.934 94.7634 396.934 95.0138 396.934 95.0973C396.631 95.1613 396.332 95.2403 396.038 95.3338L395.792 94.8608C395.605 94.5136 395.366 94.1948 395.083 93.9148H394.938H394.765H394.635C394.596 94.3017 394.626 94.6919 394.721 95.0695C394.721 95.2503 394.823 95.5007 394.837 95.5842C394.551 95.6952 394.271 95.8206 393.998 95.9598C393.998 95.8902 393.796 95.6816 393.666 95.5424C393.422 95.2271 393.13 94.9501 392.798 94.7217L392.668 94.8051L392.523 94.8886L392.393 94.9582C392.421 95.347 392.519 95.7282 392.682 96.085C392.682 96.2658 392.87 96.4884 392.899 96.5719C392.639 96.7388 392.378 96.9057 392.132 97.0866C392.132 97.0866 391.887 96.8501 391.727 96.7249C391.438 96.4512 391.1 96.2297 390.729 96.0711L390.614 96.1684L390.484 96.2797L390.368 96.3632C390.471 96.7434 390.637 97.1051 390.86 97.4344L391.163 97.8656C390.932 98.0743 390.715 98.2829 390.498 98.5055C390.498 98.5055 390.223 98.3108 390.05 98.2134C389.707 97.999 389.331 97.8393 388.936 97.7404L388.849 97.8517L388.733 97.9769L388.632 98.0882C388.797 98.4448 389.027 98.7699 389.312 99.0481C389.442 99.2011 389.63 99.3819 389.688 99.4376C389.5 99.6741 389.326 99.9245 389.153 100.175L388.647 99.9662C388.275 99.81 387.879 99.7114 387.475 99.6741V99.8132L387.388 99.9523V100.077C387.617 100.399 387.901 100.681 388.227 100.912L388.661 101.232C388.516 101.494 388.386 101.764 388.27 102.039L387.735 101.928C387.343 101.837 386.938 101.804 386.535 101.83V101.969V102.136V102.275C386.826 102.548 387.157 102.778 387.518 102.957L388.01 103.194C387.923 103.472 387.837 103.764 387.764 104.056H387.215C386.811 104.03 386.405 104.067 386.014 104.167V104.32V104.487V104.626C386.342 104.854 386.709 105.024 387.099 105.127C387.268 105.19 387.442 105.242 387.62 105.28C387.62 105.586 387.62 105.878 387.533 106.185H386.998C386.592 106.232 386.197 106.34 385.826 106.504V106.964C386.197 107.128 386.592 107.236 386.998 107.284H387.533C387.533 107.59 387.533 107.882 387.62 108.188L387.099 108.327C386.71 108.438 386.343 108.612 386.014 108.842V108.981V109.148V109.301C386.405 109.401 386.811 109.438 387.215 109.412H387.764C387.764 109.704 387.923 109.996 388.01 110.274L387.518 110.511C387.157 110.69 386.826 110.92 386.535 111.193V111.332V111.499V111.624C386.937 111.661 387.343 111.633 387.735 111.54L388.27 111.429C388.386 111.693 388.516 111.972 388.661 112.236L388.227 112.556C387.901 112.787 387.617 113.069 387.388 113.391V113.516L387.475 113.655V113.78C387.879 113.753 388.276 113.659 388.647 113.502L389.153 113.293C389.326 113.544 389.5 113.794 389.688 114.03L389.312 114.406C389.028 114.69 388.798 115.02 388.632 115.38L388.733 115.491L388.849 115.616L388.936 115.728C389.331 115.629 389.707 115.469 390.05 115.255C390.223 115.157 390.44 115.004 390.498 114.963C390.715 115.185 390.932 115.394 391.163 115.602C391.163 115.602 390.961 115.867 390.86 116.034C390.639 116.359 390.473 116.716 390.368 117.091L390.484 117.188L390.614 117.3L390.729 117.397C391.1 117.238 391.438 117.017 391.727 116.743C391.887 116.618 392.075 116.437 392.132 116.381C392.378 116.562 392.639 116.729 392.899 116.896C392.899 116.966 392.754 117.202 392.682 117.383C392.517 117.739 392.419 118.121 392.393 118.51L392.523 118.579L392.668 118.663H392.798C393.132 118.443 393.425 118.17 393.666 117.856L393.998 117.439C394.271 117.578 394.551 117.703 394.837 117.814C394.837 117.898 394.75 118.148 394.721 118.329C394.626 118.707 394.596 119.097 394.635 119.484H394.765H394.938H395.083C395.366 119.204 395.605 118.885 395.792 118.538L396.038 118.065L396.934 118.301C396.934 118.385 396.934 118.635 396.934 118.83C396.907 119.218 396.946 119.608 397.05 119.984H397.209H397.383H397.527C397.766 119.668 397.947 119.316 398.063 118.941C398.063 118.76 398.193 118.524 398.207 118.44C398.525 118.44 398.829 118.44 399.147 118.44C399.138 118.616 399.138 118.793 399.147 118.969C399.197 119.359 399.309 119.739 399.48 120.096H399.957C400.128 119.739 400.241 119.359 400.29 118.969C400.299 118.793 400.299 118.616 400.29 118.44C400.608 118.44 400.912 118.44 401.23 118.44C401.27 118.611 401.324 118.778 401.389 118.941C401.497 119.316 401.673 119.669 401.91 119.984H402.055H402.228H402.387C402.491 119.608 402.53 119.218 402.503 118.83C402.503 118.635 402.503 118.385 402.503 118.301L403.4 118.065L403.646 118.538C403.832 118.885 404.071 119.204 404.354 119.484H404.499H404.673H404.803C404.841 119.097 404.812 118.707 404.716 118.329C404.716 118.148 404.615 117.898 404.6 117.814C404.887 117.703 405.167 117.578 405.439 117.439L405.772 117.856C406.012 118.17 406.306 118.443 406.64 118.663H406.77L406.915 118.579L407.059 118.51C407.022 118.121 406.92 117.74 406.755 117.383C406.692 117.217 406.62 117.055 406.538 116.896C406.799 116.729 407.059 116.562 407.305 116.381C407.305 116.381 407.551 116.618 407.71 116.743C407.999 117.017 408.337 117.238 408.708 117.397L408.824 117.3L408.954 117.188L409.07 117.091C408.965 116.716 408.799 116.359 408.578 116.034C408.477 115.867 408.317 115.658 408.274 115.602L408.94 114.963L409.388 115.255C409.73 115.469 410.106 115.629 410.502 115.728L410.588 115.616L410.704 115.491L410.805 115.38C410.639 115.02 410.409 114.69 410.126 114.406L409.749 114.03C409.937 113.794 410.111 113.544 410.285 113.293L410.791 113.502C411.162 113.659 411.558 113.753 411.962 113.78V113.655L412.049 113.516L412.122 113.391C411.892 113.069 411.609 112.787 411.283 112.556C411.138 112.431 410.921 112.292 410.849 112.236C410.993 111.972 411.124 111.693 411.239 111.429L411.774 111.54C412.167 111.633 412.573 111.661 412.975 111.624V111.499V111.332V111.193C412.684 110.92 412.352 110.69 411.991 110.511L411.5 110.274C411.597 109.991 411.679 109.703 411.745 109.412H412.295C412.699 109.438 413.105 109.401 413.496 109.301V109.148V108.981V108.842C413.16 108.615 412.789 108.441 412.396 108.327L411.876 108.188C411.876 107.882 411.876 107.59 411.962 107.284H412.498C412.903 107.236 413.298 107.128 413.669 106.964V106.504C413.298 106.34 412.903 106.232 412.498 106.185ZM399.364 110.594C398.569 110.597 397.79 110.373 397.126 109.949C396.463 109.526 395.946 108.923 395.639 108.217C395.333 107.51 395.251 106.732 395.404 105.981C395.558 105.23 395.94 104.54 396.501 103.997C397.063 103.455 397.78 103.085 398.56 102.935C399.341 102.785 400.15 102.861 400.885 103.153C401.621 103.445 402.25 103.941 402.692 104.577C403.135 105.213 403.371 105.962 403.371 106.727C403.373 107.238 403.269 107.744 403.066 108.216C402.863 108.688 402.564 109.116 402.187 109.476C401.81 109.836 401.363 110.12 400.871 110.312C400.379 110.504 399.852 110.6 399.321 110.594H399.364Z" fill="#FFCB5D"/>
</g>
<g id="Group 1216400366">
<path id="Vector_80" d="M597.826 543.778C598.214 544.34 598.636 544.882 599.091 545.402C599.118 545.428 599.142 545.456 599.163 545.486C601.761 548.393 604.809 550.954 608.217 553.093C610.122 554.215 612.237 555.023 614.461 555.48H614.511C615.058 555.602 615.606 555.719 616.154 555.822C624.261 557.339 635.391 557.011 644.127 555.367L645.628 555.064C646.379 554.902 647.102 554.736 647.819 554.575C649.782 554.093 651.665 553.381 653.417 552.457L653.965 552.139C660.028 548.582 659.919 543.778 659.919 543.778H597.826Z" fill="#B8E34D"/>
<path id="Vector_81" d="M597.826 535.953V541.544C597.826 545.002 612.175 547.785 629.874 547.785C647.574 547.785 661.922 544.981 661.922 541.544V535.953C661.922 534.2 653.657 532.692 641.941 532.073C638.218 531.87 634.143 531.761 629.879 531.761C612.175 531.761 597.826 533.638 597.826 535.953Z" fill="#4BAE48"/>
<path id="Vector_82" d="M601.123 536.152C601.123 536.477 601.408 536.792 601.953 537.092C604.716 538.621 614.075 539.81 625.853 540.09H626.543C628.147 540.13 629.801 540.15 631.485 540.15H631.655C633.029 540.15 634.373 540.15 635.697 540.115L637.796 540.065H638.586L640.46 540C641.274 539.965 642.074 539.93 642.858 539.885H643.078L643.878 539.84C654.661 539.22 662.192 537.801 662.192 536.147C662.192 534.753 656.815 533.524 648.645 532.804C647.211 532.679 645.686 532.564 644.092 532.469L643.153 532.419H643.108H642.818L641.999 532.38C640.5 532.31 638.945 532.25 637.346 532.21C636.217 532.18 635.069 532.16 633.903 532.15C633.159 532.15 632.404 532.15 631.655 532.15C628.602 532.15 625.658 532.21 622.875 532.32C622.64 532.32 622.405 532.32 622.175 532.35C619.317 532.469 616.644 532.644 614.23 532.849C613.346 532.929 612.496 533.019 611.687 533.114C609.259 533.357 606.85 533.761 604.476 534.323C603.846 534.479 603.227 534.676 602.622 534.913C601.638 535.298 601.123 535.718 601.123 536.152Z" fill="#008059"/>
<g id="leaf-2">
<path id="Vector_83" d="M629.815 461.517C632.743 463.256 634.163 462.831 634.837 461.672C635.512 460.512 635.187 459.053 632.254 457.319C626.922 454.156 623.119 454.726 623.119 454.726C623.119 454.726 624.398 458.309 629.815 461.517Z" fill="#4DB05B"/>
</g>
<g id="leaf-3">
<path id="Vector_84" d="M629.96 483.744C632.179 486.342 633.653 486.407 634.663 485.528C635.672 484.648 635.832 483.169 633.618 480.566C629.581 475.833 625.803 475.129 625.803 475.129C625.803 475.129 625.873 478.937 629.96 483.744Z" fill="#4DB05B"/>
</g>
<path id="Vector_85" d="M630.245 538.976L631.744 537.842C631.445 535.098 631.145 531.385 634.488 516.679C637.571 503.107 644.922 482.699 662.421 462.392L661.922 461.967C644.322 482.36 636.936 502.912 633.838 516.564C630.49 531.365 630.235 538.876 630.245 538.976Z" fill="#4DB05B"/>
<path id="Vector_86" d="M644.696 487.572L645.241 487.222C632.649 467.369 640.244 443.248 640.314 443.023L639.704 442.823C639.624 443.068 631.939 467.454 644.696 487.572Z" fill="#4DB05B"/>
<path id="Vector_87" d="M654.381 477.038C658.451 476.984 662.431 475.831 665.899 473.7L665.545 473.16C665.48 473.205 659.153 477.423 651.433 476.158L651.333 476.798C652.341 476.96 653.36 477.04 654.381 477.038Z" fill="#4DB05B"/>
<path id="Vector_88" d="M632.399 526.957C645.606 525.458 656.31 518.962 664.21 507.634C664.396 507.346 664.599 507.071 664.82 506.809C664.798 506.823 664.774 506.833 664.75 506.839L664.55 506.225C664.37 506.285 664.255 506.444 663.685 507.259C655.895 518.407 645.341 524.818 632.329 526.313L632.399 526.957Z" fill="#4DB05B"/>
<path id="Vector_89" d="M651.073 519.967L651.692 519.797C649.414 511.302 655.03 498.809 655.085 498.664L654.5 498.395C653.454 500.813 652.585 503.305 651.902 505.85C650.858 509.768 649.858 515.394 651.073 519.967Z" fill="#4DB05B"/>
<g id="leaf-5">
<path id="Vector_90" d="M662.85 458.774C659.452 461.872 659.163 463.601 660.052 464.6C660.941 465.6 662.68 465.485 666.083 462.387C672.28 456.745 673.659 452.208 673.659 452.208C673.659 452.208 669.132 453.047 662.85 458.774Z" fill="#4DB05B"/>
</g>
<g id="leaf-6">
<path id="Vector_91" d="M664.175 471.611C660.008 473.53 659.218 475.109 659.768 476.313C660.318 477.518 662.007 477.957 666.179 476.038C673.769 472.541 676.438 468.643 676.438 468.643C676.438 468.643 671.881 468.053 664.175 471.611Z" fill="#4DB05B"/>
</g>
<path id="Vector_92" d="M653.172 496.551C651.613 499.599 652.113 501.009 653.292 501.623C654.471 502.238 655.901 501.833 657.455 498.785C660.288 493.228 659.518 489.431 659.518 489.431C659.518 489.431 656.046 490.92 653.172 496.551Z" fill="#4DB05B"/>
<g id="leaf-4">
<path id="Vector_93" d="M647.806 466.699C647.031 470.037 647.851 471.282 649.145 471.587C650.439 471.891 651.723 471.147 652.498 467.809C653.912 461.727 652.243 458.229 652.243 458.229C652.243 458.229 649.235 460.528 647.806 466.699Z" fill="#4DB05B"/>
</g>
<path id="Vector_94" d="M642.567 516.529C642.752 519.957 643.886 520.912 645.216 520.842C646.545 520.772 647.569 519.687 647.384 516.264C647.044 510.023 644.471 507.145 644.471 507.145C644.471 507.145 642.222 510.203 642.567 516.529Z" fill="#4DB05B"/>
<path id="Vector_95" d="M661.307 507.055C659.138 509.699 659.308 511.178 660.352 512.052C661.397 512.927 662.851 512.817 665.02 510.173C668.962 505.361 669.017 501.483 669.017 501.483C669.017 501.483 665.309 502.173 661.307 507.055Z" fill="#4DB05B"/>
<g id="leaf-1">
<path id="Vector_96" d="M638.365 440.19C637.301 444.687 638.031 446.281 639.325 446.596C640.619 446.911 641.988 445.826 643.058 441.324C645.002 433.134 643.597 428.606 643.597 428.606C643.597 428.606 640.319 431.88 638.365 440.19Z" fill="#4DB05B"/>
</g>
<g id="leaf-8">
<path id="Vector_97" d="M631.484 540.186H631.654C633.028 540.186 634.373 540.186 635.697 540.151L637.796 540.101H638.585L640.459 540.036C641.467 537.429 642.681 534.908 644.092 532.495C646.126 528.932 648.619 525.155 651.233 521.342C652.232 519.886 653.231 518.429 654.231 516.969C659.268 509.719 664.26 502.608 666.848 496.841C669.572 490.8 669.647 486.248 664.35 484.599C651.857 480.711 639.445 514.501 633.868 532.16C632.824 535.573 631.999 538.362 631.484 540.186Z" fill="#B2E077"/>
</g>
<g id="leaf-9">
<path id="Vector_98" d="M633.313 539.6L635.697 540.149L637.796 540.099H638.585L640.459 540.034C641.274 539.999 642.073 539.964 642.858 539.919C644.516 537.347 646.456 534.969 648.644 532.829C662.226 518.937 688.016 502.732 674.929 496.545C672.43 495.361 669.707 495.601 666.878 496.835C655.975 501.612 643.577 521.286 637.346 532.214C634.823 536.611 633.313 539.6 633.313 539.6Z" fill="#4DB05B"/>
<path id="Vector_99" d="M637.796 540.1H638.586C639.812 537.444 641.226 534.879 642.818 532.424C645.348 528.529 648.161 524.824 651.233 521.341C657.025 514.741 663.424 508.699 670.347 503.297L669.927 502.717C664.35 507.057 659.11 511.812 654.251 516.943C649.682 521.68 645.578 526.844 641.994 532.364C640.413 534.84 639.01 537.425 637.796 540.1Z" fill="#7FC064"/>
</g>
<g id="leaf-7">
<g id="Group 1216400675">
<path id="Vector_100" d="M580.3 496.026C580.445 496.385 580.595 496.745 580.755 497.105C581.82 499.483 583.162 501.727 584.752 503.791C586.476 506.04 586.836 508.483 586.706 510.947C586.706 511.017 586.706 511.082 586.706 511.152C586.476 514.814 585.207 518.507 585.917 521.645C585.967 521.865 586.022 522.08 586.092 522.295C586.636 524.014 587.87 525.528 590.324 526.742C598.534 530.795 599.818 530.465 600.573 534.023C600.623 534.233 600.663 534.458 600.703 534.693C601.347 534.793 601.982 534.863 602.612 534.907C601.647 535.297 601.113 535.717 601.113 536.152C601.113 536.477 601.397 536.791 601.942 537.091C604.705 538.62 614.065 539.81 625.843 540.089H626.532C628.196 540.129 629.905 540.149 631.644 540.149C635.682 540.149 639.545 540.044 643.068 539.854L643.867 539.81C644.303 537.352 644.052 534.823 643.143 532.499L643.098 532.384C642.406 530.7 641.438 529.143 640.234 527.777C632.879 519.282 626.972 520.781 628.351 505.79C628.351 505.62 628.386 505.45 628.401 505.29L628.446 504.865C630.155 488.875 608.733 495.771 603.376 490.374C598.019 484.977 594.382 478.881 584.737 481.284C577.961 482.963 577.752 489.559 580.3 496.026Z" fill="#578C44"/>
<path id="Vector_101" d="M581.823 483.149C589.038 489.507 595.824 496.337 602.136 503.592C602.321 503.802 602.491 504.007 602.671 504.217C609.258 511.794 615.113 519.978 620.16 528.657C620.27 528.847 620.38 529.032 620.485 529.222C621.105 530.311 621.664 531.346 622.179 532.325C623.878 535.558 625.062 538.191 625.857 540.11H626.547C625.772 538.206 624.593 535.548 622.879 532.28C619.387 525.681 615.376 519.37 610.886 513.406L610.481 512.872C603.755 503.922 594.601 493.578 582.263 482.645L581.823 483.149Z" fill="#F4F4F4"/>
</g>
<path id="Vector_102" d="M615.824 508.934C624.609 508.619 628.486 505.745 628.646 505.626L628.262 505.126C628.227 505.156 624.364 507.994 615.799 508.309L615.824 508.934Z" fill="#F4F4F4"/>
<path id="Vector_103" d="M610.508 513.585C614.006 512.271 616.849 508.548 618.773 502.822C619.665 500.126 620.293 497.349 620.647 494.532L620.008 494.467C620.008 494.622 618.294 509.958 610.278 512.956L610.508 513.585Z" fill="#F4F4F4"/>
<path id="Vector_104" d="M601.223 504.257C602.223 504.257 602.832 504.202 602.862 504.202L602.797 503.552C602.672 503.552 590.165 504.716 580.386 495.932L579.961 496.431C587.836 503.492 597.446 504.257 601.223 504.257Z" fill="#F4F4F4"/>
<path id="Vector_105" d="M586.756 511.587C590.071 511.18 593.157 509.684 595.531 507.334C596.518 506.372 597.32 505.235 597.894 503.981L597.3 503.736C597.275 503.796 594.771 509.768 586.666 510.947L586.756 511.587Z" fill="#F4F4F4"/>
<path id="Vector_106" d="M600.429 534.653L600.694 534.693C601.338 534.793 601.973 534.863 602.602 534.908C603.147 534.948 603.687 534.963 604.211 534.963C607.651 534.931 611.049 534.211 614.206 532.844C616.435 531.908 618.536 530.691 620.457 529.222C620.57 529.14 620.679 529.051 620.782 528.957L620.362 528.457L620.132 528.647C618.274 530.08 616.24 531.269 614.081 532.185C613.881 532.275 613.681 532.36 613.471 532.44C612.898 532.673 612.293 532.893 611.657 533.099C609.328 533.864 606.897 534.272 604.446 534.309C603.142 534.325 601.84 534.224 600.554 534.009H600.529L600.429 534.653Z" fill="#F4F4F4"/>
<path id="Vector_107" d="M613.715 532.784L614.26 532.439C612.351 529.351 607.899 525.203 597.53 522.98C593.695 522.167 589.791 521.717 585.872 521.635V522.285C586.087 522.285 607.304 522.415 613.715 532.784Z" fill="#F4F4F4"/>
</g>
</g>
</g>
</svg>
